 <svg  version="1.0" xmlns="http://www.w3.org/2000/svg"  width="300.000000pt" height="227.000000pt" viewBox="0 0 300.000000 227.000000"  preserveAspectRatio="xMidYMid meet">  <g transform="translate(0.000000,227.000000) scale(0.050000,-0.050000)" fill="#238b50" stroke="none"> <path d="M3110 3680 c-7 -11 -3 -20 8 -20 11 0 16 -13 9 -30 -6 -16 -1 -30 12 -30 13 0 18 9 11 20 -25 41 49 42 137 1 117 -53 141 -88 47 -70 -38 7 -75 4 -81 -6 -6 -10 0 -18 13 -18 14 0 48 -6 77 -13 35 -9 61 -4 77 16 63 76 205 18 148 -60 -16 -21 -28 -57 -28 -82 0 -67 -87 -114 -182 -98 -69 12 -80 8 -96 -33 -22 -59 -8 -83 40 -71 30 8 38 -1 38 -40 0 -41 8 -49 40 -40 23 6 40 0 41 -13 0 -13 14 -5 31 17 29 39 30 38 21 -15 -6 -30 -2 -60 8 -66 11 -6 19 2 19 19 0 16 10 36 23 44 16 10 20 1 12 -29 -6 -24 -3 -43 7 -43 10 0 18 -13 18 -30 0 -16 8 -30 17 -30 9 0 27 -23 40 -52 24 -52 73 -57 73 -8 0 29 49 54 51 27 1 -9 6 -37 10 -62 8 -40 1 -44 -71 -40 -44 3 -80 11 -80 18 0 7 -29 14 -65 15 -81 1 -118 9 -151 30 -15 9 -32 11 -39 4 -6 -7 0 -12 14 -12 14 0 21 -12 15 -27 -8 -19 4 -24 43 -18 36 5 45 2 27 -10 -21 -15 -21 -22 0 -40 39 -32 179 -86 166 -64 -7 10 -3 19 9 19 45 0 -26 -213 -75 -226 -23 -7 -19 -10 12 -12 49 -2 48 -56 -1 -118 -15 -18 -11 -33 15 -52 23 -17 32 -41 25 -68 -7 -26 3 -54 28 -77 21 -19 34 -46 28 -61 -5 -14 3 -26 19 -26 17 0 32 -26 38 -65 35 -248 63 -370 124 -552 39 -114 65 -212 60 -218 -6 -6 -2 -26 9 -46 21 -41 5 -105 -23 -88 -10 6 -18 1 -18 -12 0 -12 18 -27 40 -33 22 -6 40 -19 40 -30 0 -10 -7 -14 -17 -8 -13 8 -16 -67 -2 -83 13 -16 7 -57 -10 -69 -11 -8 -13 -20 -5 -28 19 -20 69 49 85 117 7 30 18 55 26 55 7 0 13 26 13 58 0 32 -5 55 -12 51 -13 -8 -79 261 -78 325 0 24 -9 49 -20 56 -11 7 -20 32 -21 56 0 24 -22 130 -48 234 -66 257 -75 288 -92 300 -23 16 -86 167 -81 195 2 14 -6 25 -18 25 -23 0 -18 149 6 173 8 8 14 33 14 56 0 27 24 56 65 80 48 29 59 31 40 7 -21 -25 -20 -35 5 -56 21 -17 30 -18 30 -2 0 12 14 22 30 22 17 0 30 -11 30 -25 1 -19 5 -19 17 1 12 20 24 10 42 -34 14 -33 38 -71 53 -84 15 -12 28 -35 28 -50 0 -27 78 -155 127 -208 35 -38 78 -120 63 -120 -6 0 7 -20 29 -44 23 -24 41 -64 41 -89 0 -33 9 -42 30 -34 22 8 27 2 18 -21 -7 -17 -3 -32 9 -32 12 0 32 -19 44 -42 19 -35 18 -40 -4 -29 -15 8 -9 -2 13 -22 23 -22 38 -58 36 -87 -3 -27 0 -38 7 -24 14 33 65 -29 66 -81 1 -19 10 -35 21 -35 11 0 20 -9 20 -21 0 -11 18 -58 40 -104 28 -58 33 -87 17 -97 -12 -7 -17 -23 -10 -34 15 -23 -31 -44 -97 -44 -26 0 -53 -9 -60 -20 -7 -12 -21 -15 -31 -9 -11 6 -19 1 -19 -12 0 -15 -22 -20 -60 -15 -33 5 -60 5 -60 1 0 -20 60 -65 87 -65 16 0 34 -11 40 -25 8 -20 10 -20 11 0 2 17 42 25 133 25 l131 0 -6 -105 c-5 -91 -12 -106 -51 -111 -47 -7 -63 26 -20 43 14 5 -8 11 -49 11 -68 2 -74 7 -82 67 l-8 65 -3 -65 c-3 -71 9 -66 -198 -69 -92 -1 -95 1 -96 56 0 40 -12 60 -37 65 -27 5 -32 -1 -20 -20 26 -42 27 -81 4 -124 -17 -33 -15 -37 13 -26 19 7 45 7 57 -1 35 -21 121 -22 149 0 17 12 42 8 75 -14 38 -25 77 -31 155 -22 58 6 117 12 133 14 15 1 32 19 37 39 5 20 17 32 26 26 9 -5 15 44 13 111 -2 66 -8 120 -14 120 -9 0 -19 54 -27 153 -1 24 -11 38 -21 32 -11 -6 -13 3 -6 22 7 18 3 33 -8 33 -11 0 -15 9 -7 21 7 11 1 35 -13 52 -25 29 -38 66 -43 122 -1 14 -9 25 -18 25 -9 0 -16 7 -14 15 5 25 -27 91 -77 157 -25 34 -46 69 -46 77 0 8 -27 49 -60 91 -33 42 -60 82 -60 90 0 13 -117 163 -187 240 -139 152 -189 276 -86 212 37 -23 78 -42 90 -42 29 0 203 -123 203 -144 0 -9 18 -16 40 -16 24 0 50 -21 63 -50 13 -27 39 -54 59 -61 44 -14 278 -265 278 -299 0 -13 18 -40 40 -60 22 -20 40 -48 40 -63 0 -15 8 -27 18 -27 15 0 47 -109 37 -128 -3 -5 20 -28 50 -52 31 -24 50 -52 43 -62 -6 -11 1 -35 15 -53 23 -28 23 -30 -3 -15 -26 15 -26 13 -3 -16 24 -29 23 -35 -5 -46 -17 -7 -32 -27 -32 -45 1 -29 3 -29 21 -3 16 23 19 15 15 -32 -3 -35 7 -78 22 -95 39 -47 -22 -141 -80 -122 -36 11 -38 8 -17 -25 55 -89 -366 -412 -621 -477 -5 -1 -23 -8 -40 -15 -58 -24 -251 -71 -350 -86 -55 -8 -113 -17 -129 -20 -16 -3 -40 3 -53 14 -16 13 -23 11 -23 -6 5 -107 -35 -156 -61 -77 -6 18 0 21 18 10 16 -9 11 4 -10 27 -31 36 -43 39 -68 19 -34 -28 -884 -35 -1139 -9 -143 14 -145 14 -145 -33 0 -46 6 -47 225 -60 1143 -68 1959 56 2271 347 23 22 50 40 60 40 21 0 152 155 240 284 63 92 87 216 42 216 -13 0 -17 15 -9 35 160 415 -60 987 -479 1245 -63 39 -165 109 -227 157 -150 117 -280 172 -473 202 -245 39 -298 66 -282 146 82 400 32 516 -242 567 -42 8 -112 31 -156 51 -88 40 -181 48 -200 17z m1204 -1092 c147 -49 376 -164 435 -219 29 -27 62 -49 72 -49 10 0 19 -20 19 -43 0 -24 6 -38 13 -30 12 12 45 -32 79 -107 8 -16 36 -59 62 -95 27 -36 43 -73 37 -83 -6 -10 -3 -22 6 -25 28 -11 49 -97 23 -97 -12 0 -17 -8 -11 -19 6 -10 1 -25 -12 -33 -14 -8 -18 -6 -10 7 13 21 -56 118 -132 187 -19 18 -35 43 -35 55 0 13 -8 23 -19 23 -10 0 -24 18 -31 40 -7 22 -26 40 -41 40 -16 0 -29 7 -29 17 0 9 -22 28 -50 43 -27 15 -50 39 -50 54 0 15 -21 35 -47 45 -26 10 -52 30 -58 44 -6 15 -66 49 -135 76 -68 27 -129 60 -134 74 -5 13 -20 21 -33 16 -32 -11 -119 65 -103 90 18 29 74 26 184 -11z m836 -928 c0 -30 -13 -52 -34 -56 -26 -5 -33 8 -32 56 3 77 66 77 66 0z m-484 -407 c7 -19 -7 -26 -48 -25 -60 2 -76 21 -33 39 45 18 71 13 81 -14z"/> <path d="M2905 3667 c-14 -6 -25 -24 -25 -40 0 -21 -12 -26 -43 -16 -35 11 -41 7 -30 -22 11 -28 8 -30 -13 -12 -55 45 -274 -135 -274 -225 0 -35 3 -36 25 -8 39 48 179 61 284 25 68 -23 101 -25 131 -9 22 12 40 13 40 3 0 -29 103 -48 128 -23 23 23 -22 66 -51 48 -8 -5 -10 16 -4 47 36 197 -29 288 -168 232z m144 -191 c-10 -53 -21 -63 -48 -47 -23 15 -29 97 -8 117 24 24 64 -27 56 -70z"/> <path d="M2535 3267 c14 -6 25 -19 25 -30 0 -11 -7 -15 -15 -10 -16 10 -11 -162 7 -244 8 -38 15 -42 38 -23 21 17 24 35 10 59 -10 20 -13 41 -6 48 48 49 -1 214 -64 211 -11 -1 -9 -6 5 -11z"/> <path d="M2300 2959 c-353 -76 -891 -299 -722 -299 12 0 22 9 22 20 0 11 16 20 36 20 19 0 53 12 75 27 79 55 271 112 413 124 93 8 157 23 176 43 23 24 23 28 2 16 -19 -11 -23 -9 -14 7 20 33 52 29 52 -7 0 -16 14 -30 30 -30 17 0 30 9 30 20 0 11 14 20 30 20 17 0 30 9 30 20 0 11 14 20 30 20 17 0 30 9 30 20 0 25 -13 24 -220 -21z"/> <path d="M2576 2782 c-22 -26 -27 -45 -13 -54 28 -17 62 20 54 61 -6 29 -11 28 -41 -7z"/> <path d="M3340 2774 c0 -26 -10 -29 -46 -16 -30 12 -65 8 -105 -10 -32 -16 -43 -24 -23 -19 49 14 85 -80 55 -144 -11 -26 -21 -67 -21 -91 -1 -35 -5 -38 -19 -15 -24 38 -147 -15 -181 -78 -24 -45 -23 -45 85 -45 77 1 105 -40 45 -63 -16 -7 -30 -26 -30 -42 0 -17 -7 -31 -16 -31 -59 0 -181 -350 -187 -538 -3 -78 -13 -142 -22 -142 -10 0 -12 -20 -5 -45 10 -35 8 -38 -8 -15 -16 22 -21 23 -22 4 0 -15 -9 -21 -20 -14 -13 8 -13 -5 -1 -37 10 -27 13 -55 5 -62 -7 -7 0 -22 17 -32 24 -16 24 -22 2 -36 -19 -13 -21 -22 -5 -32 25 -15 45 24 49 99 3 53 23 66 40 25 5 -14 8 2 5 35 -3 33 2 83 10 110 12 43 15 39 18 -30 3 -44 9 -64 14 -45 5 19 17 35 26 35 19 0 2 -143 -18 -160 -7 -5 -14 -28 -18 -50 -5 -39 -5 -39 25 -1 40 51 40 6 -1 -72 -18 -35 -21 -55 -8 -47 13 8 0 -22 -28 -67 -29 -45 -52 -94 -52 -108 1 -19 5 -18 18 2 26 42 46 -6 29 -71 -13 -52 -12 -53 20 -22 42 42 42 73 0 119 -20 22 -24 37 -10 37 13 0 23 13 23 28 0 15 14 33 30 39 22 9 30 44 30 134 0 87 7 117 23 107 15 -9 18 -5 8 11 -39 62 -32 423 11 588 23 90 47 192 52 228 6 36 18 65 28 65 10 0 18 23 18 52 0 38 8 49 30 41 16 -6 39 -1 50 13 12 13 44 51 71 84 77 91 101 139 62 124 -19 -7 -28 -3 -24 12 34 112 31 161 -6 123 -21 -22 -35 -55 -32 -74 4 -20 -6 -35 -22 -35 -16 0 -29 -19 -29 -42 0 -36 5 -39 30 -18 26 22 29 20 18 -7 -14 -38 -40 -43 -59 -11 -10 16 -19 14 -31 -5 -14 -22 -17 -22 -18 -1 0 15 14 40 30 57 17 17 25 38 19 49 -6 10 -2 18 10 18 11 0 21 14 21 32 0 19 -11 28 -27 22 -14 -6 -26 2 -26 17 0 19 14 24 46 16 46 -11 89 38 59 67 -6 7 -12 -2 -12 -20z"/> <path d="M1918 2747 c-45 -23 -109 -40 -164 -46 -9 0 -11 -10 -4 -21 7 -11 -2 -20 -19 -20 -17 0 -31 -10 -31 -22 0 -12 -13 -17 -28 -11 -16 6 -34 -2 -40 -18 -6 -16 -26 -29 -45 -29 -19 0 -48 -13 -65 -29 -18 -15 -59 -42 -92 -59 -88 -47 -25 -39 85 10 52 23 118 52 145 64 28 12 66 35 85 51 19 16 35 23 35 15 0 -8 25 -1 55 15 30 16 85 42 121 58 49 22 59 34 40 48 -18 14 -43 11 -78 -6z"/> <path d="M2085 2766 c-25 -5 -45 -22 -45 -37 0 -36 39 -36 85 -1 36 27 47 54 20 49 -8 -1 -35 -6 -60 -11z"/> <path d="M3420 2702 c0 -10 11 -23 25 -29 18 -8 15 -19 -11 -40 -26 -21 -29 -31 -10 -38 41 -13 109 84 74 107 -37 23 -78 23 -78 0z"/> <path d="M2152 2590 c-21 -16 -46 -24 -55 -18 -10 6 -23 -4 -29 -21 -7 -17 -29 -31 -50 -31 -21 0 -38 -8 -38 -18 0 -18 -52 -49 -245 -145 -71 -35 -95 -58 -95 -92 0 -27 -12 -45 -30 -45 -16 0 -30 9 -30 20 0 37 -30 20 -70 -40 -22 -33 -55 -60 -73 -60 -18 0 -76 -45 -128 -99 -52 -54 -102 -97 -110 -95 -17 5 -159 -138 -159 -160 0 -9 9 -2 20 14 11 17 20 20 20 7 0 -13 20 -20 45 -15 26 5 32 3 15 -5 -45 -20 -86 -67 -72 -82 7 -7 91 65 187 160 313 308 549 495 775 614 172 90 241 141 189 140 -16 0 -46 -13 -67 -29z"/> <path d="M3013 2604 c4 -6 -22 -43 -58 -81 l-65 -69 64 37 c69 39 99 87 70 110 -10 8 -14 9 -11 3z"/> <path d="M2360 2540 c-27 -21 -59 -39 -70 -40 -11 0 -56 -31 -100 -70 -44 -38 -109 -81 -145 -94 -36 -13 -70 -40 -76 -59 -6 -19 -28 -40 -49 -47 -20 -6 -46 -36 -57 -66 -11 -30 -21 -43 -21 -29 -1 15 -20 7 -47 -20 -25 -25 -43 -52 -40 -61 4 -10 -3 -12 -13 -5 -30 18 -82 -47 -84 -105 -2 -36 -6 -42 -12 -18 -7 29 -15 31 -37 13 -16 -13 -23 -33 -16 -44 8 -14 -3 -17 -29 -10 -24 6 -52 -1 -66 -17 -12 -15 -17 -28 -9 -28 8 0 0 -14 -18 -31 -17 -18 -31 -44 -31 -58 0 -14 -14 -38 -31 -52 -38 -31 -93 -157 -79 -180 6 -9 -8 -22 -30 -29 -22 -7 -40 -21 -40 -31 0 -10 -12 -13 -27 -7 -16 6 -32 -6 -38 -28 -19 -75 122 -40 234 59 206 181 589 622 576 662 -3 8 2 13 11 10 8 -3 73 45 142 105 70 61 135 108 145 105 9 -3 17 8 17 24 0 17 12 25 27 19 34 -13 159 103 148 137 -13 40 -81 38 -135 -5z"/> <path d="M1736 2501 c-41 -20 -80 -31 -88 -24 -8 7 -8 2 -1 -11 12 -21 -38 -50 -97 -58 -39 -4 -247 -106 -260 -127 -7 -12 -21 -16 -31 -10 -11 6 -19 -3 -19 -20 0 -18 -17 -31 -42 -31 -26 0 -37 9 -30 25 7 14 17 40 24 59 7 19 47 51 90 70 42 20 77 48 77 63 1 44 -139 -52 -253 -175 -112 -121 -123 -142 -74 -142 20 0 28 -11 21 -30 -19 -50 24 -34 95 35 80 78 117 101 405 245 123 61 234 124 248 141 30 36 26 36 -65 -10z"/> <path d="M2630 2300 c-128 -41 -167 -66 -179 -112 -9 -37 -24 -48 -57 -44 -24 3 -45 -2 -47 -12 -2 -10 -16 -26 -30 -36 -21 -15 -21 -21 -2 -29 18 -8 19 -21 3 -50 -15 -29 -14 -48 6 -72 22 -28 21 -30 -2 -16 -22 14 -26 9 -15 -19 12 -30 9 -32 -17 -10 -26 22 -30 15 -25 -52 5 -72 1 -78 -45 -74 -27 2 -39 -1 -25 -7 14 -6 25 -28 25 -50 0 -44 -48 -102 -68 -83 -6 7 -12 -6 -12 -29 0 -24 -15 -45 -35 -49 -19 -4 -35 -24 -35 -46 0 -30 -15 -41 -60 -45 -56 -6 -58 -4 -22 24 25 20 34 45 27 81 -7 37 1 57 29 72 31 17 34 27 15 49 -19 23 -17 29 9 29 17 0 32 -10 32 -21 0 -12 10 -15 21 -8 14 8 8 24 -15 42 -20 17 -25 24 -11 17 15 -7 25 0 25 18 0 75 -109 -13 -129 -104 -9 -41 -23 -59 -38 -51 -12 8 -7 -5 13 -28 24 -27 29 -46 15 -54 -11 -7 -21 -2 -21 12 0 14 -14 5 -32 -19 -17 -25 -27 -58 -22 -72 7 -18 -4 -23 -40 -16 -38 7 -43 14 -23 28 22 15 21 17 -3 11 -17 -5 -33 -36 -36 -72 -4 -35 -13 -60 -21 -55 -22 14 -16 -96 7 -113 11 -8 6 -15 -13 -15 -19 0 -38 11 -44 25 -6 14 -6 -9 -1 -50 8 -58 4 -75 -20 -75 -20 0 -27 12 -19 35 8 27 6 29 -9 8 -11 -16 -22 -19 -27 -7 -4 11 -20 6 -36 -12 -26 -28 -26 -30 5 -18 28 10 34 1 34 -58 0 -42 8 -65 20 -58 11 7 20 3 20 -9 0 -11 -9 -21 -20 -21 -11 0 -20 -10 -20 -23 0 -12 -16 -34 -35 -48 -19 -14 -28 -33 -19 -42 9 -9 22 -6 30 6 8 12 30 19 49 16 25 -4 35 8 35 43 0 26 10 48 21 48 12 0 16 -11 9 -25 -7 -14 0 -9 16 10 16 20 43 30 60 24 24 -9 28 -2 20 29 -6 23 -20 36 -31 29 -13 -8 -15 -3 -6 11 8 14 29 20 45 13 20 -7 27 -2 20 16 -6 14 -1 39 10 55 16 23 18 22 9 -5 -6 -19 2 -38 17 -44 18 -7 24 -1 18 16 -6 15 -2 33 10 40 11 7 16 24 11 37 -6 14 4 43 22 65 34 42 32 -7 -5 -104 -12 -33 -9 -34 20 -10 19 16 34 45 34 67 0 22 9 33 21 25 24 -14 81 51 66 76 -5 8 1 15 13 15 12 0 17 8 11 19 -7 10 1 26 16 35 59 34 156 204 143 251 -7 27 -6 35 4 21 12 -16 26 -4 45 40 96 222 189 399 260 501 90 127 91 133 31 113z"/> <path d="M2192 1947 c-18 -46 -17 -46 49 -24 66 23 67 34 3 46 -24 5 -46 -4 -52 -22z"/> <path d="M924 1923 c-15 -9 -29 -30 -31 -45 -3 -15 -22 -77 -42 -136 -68 -201 23 -562 183 -732 32 -33 110 -121 174 -195 64 -74 127 -135 140 -135 13 0 35 -11 47 -23 69 -69 865 -286 881 -240 4 13 14 19 22 14 9 -5 15 4 15 20 0 17 -18 34 -41 39 -23 4 -93 18 -156 30 -325 63 -876 268 -876 326 0 9 8 12 17 6 10 -6 13 11 8 38 -5 27 -17 45 -25 40 -18 -11 -45 46 -31 68 4 7 -9 15 -30 17 -22 1 -40 -8 -40 -21 -1 -13 -10 -2 -21 26 -14 34 -13 52 2 57 32 10 -17 63 -59 63 -19 0 -46 23 -61 50 -15 28 -34 50 -43 50 -10 0 -17 30 -17 68 0 37 -14 78 -30 92 -20 16 -24 33 -12 48 12 14 9 40 -9 72 -46 84 10 360 74 360 9 0 17 14 17 30 0 34 -17 37 -56 13z"/> <path d="M2710 1820 c-7 -11 -6 -30 1 -41 7 -12 -3 -39 -22 -60 -33 -37 -33 -39 -1 -39 19 0 29 -9 22 -20 -20 -33 3 -23 33 14 18 23 19 29 2 19 -14 -9 -25 -6 -25 6 0 11 8 21 18 21 21 0 23 97 1 111 -9 5 -22 1 -29 -11z"/> <path d="M2675 1567 c14 -6 25 -23 25 -39 0 -15 -11 -28 -25 -28 -18 -1 -18 -5 2 -18 23 -14 23 -19 0 -28 -19 -8 -16 -11 8 -12 19 -1 35 -12 35 -23 0 -12 8 -16 19 -10 10 6 24 3 30 -8 20 -32 -69 -69 -96 -40 -18 19 -15 22 11 13 25 -9 31 -4 22 18 -15 40 -50 6 -59 -56 -3 -25 -10 -64 -14 -86 -10 -48 40 -110 88 -110 19 0 41 16 49 35 20 51 24 265 4 265 -9 0 -11 8 -5 19 6 10 1 25 -12 33 -14 9 -18 6 -9 -9 8 -13 5 -23 -7 -23 -11 0 -21 27 -21 60 0 44 -9 60 -35 58 -21 -1 -25 -5 -10 -11z m49 -316 c25 8 36 5 29 -6 -35 -56 -105 -39 -95 24 9 52 12 54 18 15 5 -36 16 -43 48 -33z"/> <path d="M2788 1143 c8 -13 1 -29 -16 -35 -24 -9 -27 -21 -10 -52 12 -21 16 -52 10 -68 -17 -44 0 -33 38 25 34 51 34 53 -3 40 -35 -12 -35 -11 2 17 21 17 28 30 14 30 -14 0 -20 8 -14 19 6 10 1 25 -12 33 -14 9 -18 6 -9 -9z"/> </g> </svg> 